# xmcd
#
# Track frame offsets: 
#        150
#        21354
#        37568
#        57441
#        80036
#        100892
#        118791
#        148060
#        174076
#        192701
#        213985
#        232707
#        252940
#        275345
#        296623
#
# Disc length: 4228 seconds
#
# Revision: 2
# Processed by: cddbd v1.5.2PL0 Copyright (c) Steve Scherf et al.
# Submitted via: ExactAudioCopy v1.3
#
DISCID=d310820f
DTITLE=Bobby Brown - Gold [CD2]
DYEAR=2009
DGENRE=R&B
TTITLE0=Every Little Step (Remix)
TTITLE1=She Ain't Worth It (Glenn Medeiros feat. Bobby Brown)
TTITLE2=Humpin' Around (Video Edit)
TTITLE3=Two Can Play That Game
TTITLE4=Get Away (Single Version)
TTITLE5=Good Enough (Single Version)
TTITLE6=One More Night
TTITLE7=Lovin' You Down
TTITLE8=That's the Way Love Is (Single Version)
TTITLE9=You Don't Have to Worry (feat. New Edition)
TTITLE10=Feelin' Inside
TTITLE11=She's All I Need
TTITLE12=My Place
TTITLE13=Forever
TTITLE14=Thug Lovin' (Radio Edit) (Ja Rule feat. Bobby Brown)
EXTD=
EXTT0=
EXTT1=
EXTT2=
EXTT3=
EXTT4=
EXTT5=
EXTT6=
EXTT7=
EXTT8=
EXTT9=
EXTT10=
EXTT11=
EXTT12=
EXTT13=
EXTT14=
PLAYORDER=
